<svg xmlns="http://www.w3.org/2000/svg" xmlns:xlink="http://www.w3.org/1999/xlink" width="500" zoomAndPan="magnify" viewBox="0 0 375 374.999991" height="500" preserveAspectRatio="xMidYMid meet" version="1.0"><defs><clipPath id="d77f18214b"><path d="M 97 0 L 364.828125 0 L 364.828125 320 L 97 320 Z M 97 0 " clip-rule="nonzero"/></clipPath><clipPath id="0bdffb4a6d"><path d="M 10.078125 35 L 295 35 L 295 375 L 10.078125 375 Z M 10.078125 35 " clip-rule="nonzero"/></clipPath><clipPath id="2c3b50568e"><path d="M 97 0 L 364.828125 0 L 364.828125 320 L 97 320 Z M 97 0 " clip-rule="nonzero"/></clipPath><clipPath id="9b31d251c5"><path d="M 10.078125 35 L 295 35 L 295 375 L 10.078125 375 Z M 10.078125 35 " clip-rule="nonzero"/></clipPath></defs><g clip-path="url(#d77f18214b)"><path fill="#0b2134" d="M 97.214844 262.847656 L 283.050781 40.878906 L 97.214844 40.878906 L 97.214844 -0.00390625 L 364.816406 -0.00390625 L 97.214844 319.632812 Z M 97.214844 262.847656 " fill-opacity="1" fill-rule="evenodd"/></g><g clip-path="url(#0bdffb4a6d)"><path fill="#407ab1" d="M 97.214844 46.148438 L 271.78125 46.148438 L 20.71875 346.03125 L 20.71875 46.148438 Z M 283.050781 35.613281 L 10.183594 35.613281 L 10.183594 374.996094 L 294.320312 35.613281 Z M 283.050781 35.613281 " fill-opacity="1" fill-rule="nonzero"/></g><g clip-path="url(#2c3b50568e)"><path fill="#0b2134" d="M 97.214844 262.847656 L 283.050781 40.878906 L 97.214844 40.878906 L 97.214844 -0.00390625 L 364.816406 -0.00390625 L 97.214844 319.632812 Z M 97.214844 262.847656 " fill-opacity="1" fill-rule="evenodd"/></g><g clip-path="url(#9b31d251c5)"><path fill="#407ab1" d="M 97.214844 46.148438 L 271.78125 46.148438 L 20.71875 346.03125 L 20.71875 46.148438 Z M 283.050781 35.613281 L 10.183594 35.613281 L 10.183594 374.996094 L 294.320312 35.613281 Z M 283.050781 35.613281 " fill-opacity="1" fill-rule="nonzero"/></g></svg>