<svg xmlns="http://www.w3.org/2000/svg" xmlns:xlink="http://www.w3.org/1999/xlink" width="481" zoomAndPan="magnify" viewBox="0 0 360.75 360.749986" height="481" preserveAspectRatio="xMidYMid meet" version="1.0"><defs><clipPath id="e9e5d82041"><path d="M 0 0 L 360.273438 0 L 360.273438 360.273438 L 0 360.273438 Z M 0 0 " clip-rule="nonzero"/></clipPath><clipPath id="15424028e2"><path d="M 180.136719 0 C 80.648438 0 0 80.648438 0 180.136719 C 0 279.625 80.648438 360.273438 180.136719 360.273438 C 279.625 360.273438 360.273438 279.625 360.273438 180.136719 C 360.273438 80.648438 279.625 0 180.136719 0 Z M 180.136719 0 " clip-rule="nonzero"/></clipPath></defs><g clip-path="url(#e9e5d82041)"><g clip-path="url(#15424028e2)"><path fill="#0b2134" d="M 0 0 L 360.273438 0 L 360.273438 360.273438 L 0 360.273438 Z M 0 0 " fill-opacity="1" fill-rule="nonzero"/><path fill="#0b2134" d="M 0 0 L 360.273438 0 L 360.273438 360.273438 L 0 360.273438 Z M 0 0 " fill-opacity="1" fill-rule="nonzero"/></g></g></svg>