<svg xmlns="http://www.w3.org/2000/svg" xmlns:xlink="http://www.w3.org/1999/xlink" width="1200" zoomAndPan="magnify" viewBox="0 0 900 37.5" height="50" preserveAspectRatio="xMidYMid meet" version="1.0"><defs><g/><clipPath id="9e6604c9fc"><path d="M 5.921875 0 L 894.078125 0 L 894.078125 37.007812 L 5.921875 37.007812 Z M 5.921875 0 " clip-rule="nonzero"/></clipPath><clipPath id="274454826c"><path d="M 5.921875 0 L 42.453125 0 L 42.453125 37.007812 L 5.921875 37.007812 Z M 5.921875 0 " clip-rule="nonzero"/></clipPath><clipPath id="5272a3fd0d"><path d="M 5.921875 0 L 30 0 L 30 37.007812 L 5.921875 37.007812 Z M 5.921875 0 " clip-rule="nonzero"/></clipPath><clipPath id="52dfe79bdd"><path d="M 862.199219 12 L 894.078125 12 L 894.078125 37.007812 L 862.199219 37.007812 Z M 862.199219 12 " clip-rule="nonzero"/></clipPath><clipPath id="1e7ed9ddce"><path d="M 871 5.789062 L 894.078125 5.789062 L 894.078125 37.007812 L 871 37.007812 Z M 871 5.789062 " clip-rule="nonzero"/></clipPath></defs><g clip-path="url(#9e6604c9fc)"><path fill="#ffffff" d="M 5.921875 0 L 894.078125 0 L 894.078125 37.007812 L 5.921875 37.007812 Z M 5.921875 0 " fill-opacity="1" fill-rule="nonzero"/><path fill="#ffffff" d="M 5.921875 0 L 894.078125 0 L 894.078125 37.007812 L 5.921875 37.007812 Z M 5.921875 0 " fill-opacity="1" fill-rule="nonzero"/></g><g fill="#0b2134" fill-opacity="1"><g transform="translate(34.590252, 20.507745)"><g><path d="M 3.609375 0.125 C 2.660156 0.125 1.898438 -0.171875 1.328125 -0.765625 C 0.753906 -1.367188 0.46875 -2.191406 0.46875 -3.234375 L 0.46875 -9.25 C 0.46875 -10.539062 0.722656 -11.515625 1.234375 -12.171875 C 1.753906 -12.835938 2.566406 -13.171875 3.671875 -13.171875 C 4.640625 -13.171875 5.414062 -12.90625 6 -12.375 C 6.582031 -11.851562 6.875 -11.09375 6.875 -10.09375 L 6.875 -7.859375 L 4.28125 -7.859375 L 4.28125 -9.78125 C 4.28125 -10.15625 4.234375 -10.410156 4.140625 -10.546875 C 4.054688 -10.691406 3.898438 -10.765625 3.671875 -10.765625 C 3.441406 -10.765625 3.28125 -10.679688 3.1875 -10.515625 C 3.101562 -10.359375 3.0625 -10.125 3.0625 -9.8125 L 3.0625 -3.265625 C 3.0625 -2.921875 3.113281 -2.671875 3.21875 -2.515625 C 3.320312 -2.359375 3.472656 -2.28125 3.671875 -2.28125 C 4.078125 -2.28125 4.28125 -2.609375 4.28125 -3.265625 L 4.28125 -5.625 L 6.90625 -5.625 L 6.90625 -3.15625 C 6.90625 -0.96875 5.804688 0.125 3.609375 0.125 Z M 3.609375 0.125 "/></g></g></g><g fill="#0b2134" fill-opacity="1"><g transform="translate(41.787607, 20.507745)"><g><path d="M 0.578125 -13.046875 L 4.59375 -13.046875 C 5.226562 -13.046875 5.71875 -12.898438 6.0625 -12.609375 C 6.414062 -12.328125 6.648438 -11.921875 6.765625 -11.390625 C 6.890625 -10.867188 6.953125 -10.207031 6.953125 -9.40625 C 6.953125 -8.664062 6.851562 -8.085938 6.65625 -7.671875 C 6.46875 -7.253906 6.140625 -6.960938 5.671875 -6.796875 C 6.054688 -6.722656 6.335938 -6.523438 6.515625 -6.203125 C 6.691406 -5.890625 6.78125 -5.46875 6.78125 -4.9375 L 6.765625 0 L 4.203125 0 L 4.203125 -5.109375 C 4.203125 -5.472656 4.128906 -5.703125 3.984375 -5.796875 C 3.847656 -5.898438 3.59375 -5.953125 3.21875 -5.953125 L 3.21875 0 L 0.578125 0 Z M 3.859375 -8.21875 C 4.222656 -8.21875 4.40625 -8.613281 4.40625 -9.40625 C 4.40625 -9.75 4.390625 -10.003906 4.359375 -10.171875 C 4.328125 -10.347656 4.269531 -10.46875 4.1875 -10.53125 C 4.101562 -10.59375 3.988281 -10.625 3.84375 -10.625 L 3.234375 -10.625 L 3.234375 -8.21875 Z M 3.859375 -8.21875 "/></g></g></g><g fill="#0b2134" fill-opacity="1"><g transform="translate(49.03052, 20.507745)"><g><path d="M 3.6875 0.125 C 2.632812 0.125 1.832031 -0.195312 1.28125 -0.84375 C 0.738281 -1.488281 0.46875 -2.390625 0.46875 -3.546875 L 0.46875 -9.765625 C 0.46875 -10.890625 0.738281 -11.738281 1.28125 -12.3125 C 1.832031 -12.882812 2.632812 -13.171875 3.6875 -13.171875 C 4.738281 -13.171875 5.535156 -12.882812 6.078125 -12.3125 C 6.628906 -11.738281 6.90625 -10.890625 6.90625 -9.765625 L 6.90625 -3.546875 C 6.90625 -2.378906 6.628906 -1.472656 6.078125 -0.828125 C 5.535156 -0.191406 4.738281 0.125 3.6875 0.125 Z M 3.6875 -2.28125 C 3.925781 -2.28125 4.082031 -2.378906 4.15625 -2.578125 C 4.238281 -2.785156 4.28125 -3.070312 4.28125 -3.4375 L 4.28125 -9.8125 C 4.28125 -10.09375 4.242188 -10.320312 4.171875 -10.5 C 4.097656 -10.675781 3.941406 -10.765625 3.703125 -10.765625 C 3.265625 -10.765625 3.046875 -10.4375 3.046875 -9.78125 L 3.046875 -3.421875 C 3.046875 -3.046875 3.09375 -2.757812 3.1875 -2.5625 C 3.28125 -2.375 3.445312 -2.28125 3.6875 -2.28125 Z M 3.6875 -2.28125 "/></g></g></g><g fill="#0b2134" fill-opacity="1"><g transform="translate(56.410095, 20.507745)"><g><path d="M 0.578125 -13.046875 L 4.03125 -13.046875 C 5.070312 -13.046875 5.8125 -12.707031 6.25 -12.03125 C 6.695312 -11.363281 6.921875 -10.378906 6.921875 -9.078125 C 6.921875 -7.785156 6.722656 -6.804688 6.328125 -6.140625 C 5.929688 -5.484375 5.222656 -5.15625 4.203125 -5.15625 L 3.140625 -5.15625 L 3.140625 0 L 0.578125 0 Z M 3.296875 -7.515625 C 3.609375 -7.515625 3.835938 -7.570312 3.984375 -7.6875 C 4.128906 -7.800781 4.222656 -7.96875 4.265625 -8.1875 C 4.316406 -8.40625 4.34375 -8.71875 4.34375 -9.125 C 4.34375 -9.675781 4.28125 -10.070312 4.15625 -10.3125 C 4.039062 -10.550781 3.800781 -10.671875 3.4375 -10.671875 L 3.140625 -10.671875 L 3.140625 -7.515625 Z M 3.296875 -7.515625 "/></g></g></g><g fill="#0b2134" fill-opacity="1"><g transform="translate(63.577082, 20.507745)"><g><path d="M 0.4375 -3.78125 L 0.4375 -5.5 L 4.265625 -5.5 L 4.265625 -3.78125 Z M 0.4375 -3.78125 "/></g></g></g><g fill="#0b2134" fill-opacity="1"><g transform="translate(68.299395, 20.507745)"><g><path d="M 3.609375 0.125 C 2.660156 0.125 1.898438 -0.171875 1.328125 -0.765625 C 0.753906 -1.367188 0.46875 -2.191406 0.46875 -3.234375 L 0.46875 -9.25 C 0.46875 -10.539062 0.722656 -11.515625 1.234375 -12.171875 C 1.753906 -12.835938 2.566406 -13.171875 3.671875 -13.171875 C 4.640625 -13.171875 5.414062 -12.90625 6 -12.375 C 6.582031 -11.851562 6.875 -11.09375 6.875 -10.09375 L 6.875 -7.859375 L 4.28125 -7.859375 L 4.28125 -9.78125 C 4.28125 -10.15625 4.234375 -10.410156 4.140625 -10.546875 C 4.054688 -10.691406 3.898438 -10.765625 3.671875 -10.765625 C 3.441406 -10.765625 3.28125 -10.679688 3.1875 -10.515625 C 3.101562 -10.359375 3.0625 -10.125 3.0625 -9.8125 L 3.0625 -3.265625 C 3.0625 -2.921875 3.113281 -2.671875 3.21875 -2.515625 C 3.320312 -2.359375 3.472656 -2.28125 3.671875 -2.28125 C 4.078125 -2.28125 4.28125 -2.609375 4.28125 -3.265625 L 4.28125 -5.625 L 6.90625 -5.625 L 6.90625 -3.15625 C 6.90625 -0.96875 5.804688 0.125 3.609375 0.125 Z M 3.609375 0.125 "/></g></g></g><g fill="#0b2134" fill-opacity="1"><g transform="translate(75.49675, 20.507745)"><g><path d="M 3.6875 0.125 C 2.632812 0.125 1.832031 -0.195312 1.28125 -0.84375 C 0.738281 -1.488281 0.46875 -2.390625 0.46875 -3.546875 L 0.46875 -9.765625 C 0.46875 -10.890625 0.738281 -11.738281 1.28125 -12.3125 C 1.832031 -12.882812 2.632812 -13.171875 3.6875 -13.171875 C 4.738281 -13.171875 5.535156 -12.882812 6.078125 -12.3125 C 6.628906 -11.738281 6.90625 -10.890625 6.90625 -9.765625 L 6.90625 -3.546875 C 6.90625 -2.378906 6.628906 -1.472656 6.078125 -0.828125 C 5.535156 -0.191406 4.738281 0.125 3.6875 0.125 Z M 3.6875 -2.28125 C 3.925781 -2.28125 4.082031 -2.378906 4.15625 -2.578125 C 4.238281 -2.785156 4.28125 -3.070312 4.28125 -3.4375 L 4.28125 -9.8125 C 4.28125 -10.09375 4.242188 -10.320312 4.171875 -10.5 C 4.097656 -10.675781 3.941406 -10.765625 3.703125 -10.765625 C 3.265625 -10.765625 3.046875 -10.4375 3.046875 -9.78125 L 3.046875 -3.421875 C 3.046875 -3.046875 3.09375 -2.757812 3.1875 -2.5625 C 3.28125 -2.375 3.445312 -2.28125 3.6875 -2.28125 Z M 3.6875 -2.28125 "/></g></g></g><g fill="#0b2134" fill-opacity="1"><g transform="translate(82.876326, 20.507745)"><g><path d="M 0.578125 0 L 0.578125 -13.046875 L 4.5625 -13.046875 L 5.65625 -5.09375 L 6.75 -13.046875 L 10.75 -13.046875 L 10.75 0 L 8.375 0 L 8.375 -9.40625 L 6.859375 0 L 4.53125 0 L 2.9375 -9.40625 L 2.9375 0 Z M 0.578125 0 "/></g></g></g><g fill="#0b2134" fill-opacity="1"><g transform="translate(94.203819, 20.507745)"><g><path d="M 0.578125 0 L 0.578125 -13.046875 L 4.5625 -13.046875 L 5.65625 -5.09375 L 6.75 -13.046875 L 10.75 -13.046875 L 10.75 0 L 8.375 0 L 8.375 -9.40625 L 6.859375 0 L 4.53125 0 L 2.9375 -9.40625 L 2.9375 0 Z M 0.578125 0 "/></g></g></g><g fill="#0b2134" fill-opacity="1"><g transform="translate(105.531312, 20.507745)"><g/></g></g><g fill="#0b2134" fill-opacity="1"><g transform="translate(109.084443, 20.507745)"><g><path d="M 0.234375 0 L 1.484375 -13.046875 L 5.90625 -13.046875 L 7.15625 0 L 4.671875 0 L 4.5 -2.109375 L 2.921875 -2.109375 L 2.765625 0 Z M 3.109375 -4.1875 L 4.296875 -4.1875 L 3.71875 -10.828125 L 3.59375 -10.828125 Z M 3.109375 -4.1875 "/></g></g></g><g fill="#0b2134" fill-opacity="1"><g transform="translate(116.448829, 20.507745)"><g><path d="M 0.578125 0 L 0.578125 -13.046875 L 3.265625 -13.046875 L 4.46875 -6.796875 L 4.46875 -13.046875 L 6.984375 -13.046875 L 6.984375 0 L 4.4375 0 L 3.125 -6.53125 L 3.125 0 Z M 0.578125 0 "/></g></g></g><g fill="#0b2134" fill-opacity="1"><g transform="translate(124.010614, 20.507745)"><g><path d="M 0.234375 0 L 1.484375 -13.046875 L 5.90625 -13.046875 L 7.15625 0 L 4.671875 0 L 4.5 -2.109375 L 2.921875 -2.109375 L 2.765625 0 Z M 3.109375 -4.1875 L 4.296875 -4.1875 L 3.71875 -10.828125 L 3.59375 -10.828125 Z M 3.109375 -4.1875 "/></g></g></g><g fill="#0b2134" fill-opacity="1"><g transform="translate(131.374999, 20.507745)"><g><path d="M 0.578125 0 L 0.578125 -13.046875 L 3.1875 -13.046875 L 3.1875 -2.21875 L 5.875 -2.21875 L 5.875 0 Z M 0.578125 0 "/></g></g></g><g fill="#0b2134" fill-opacity="1"><g transform="translate(137.403171, 20.507745)"><g><path d="M 2.15625 0 L 2.15625 -4.296875 L 0.078125 -13.046875 L 2.65625 -13.046875 L 3.390625 -8.625 L 4.109375 -13.046875 L 6.703125 -13.046875 L 4.609375 -4.296875 L 4.609375 0 Z M 2.15625 0 "/></g></g></g><g fill="#0b2134" fill-opacity="1"><g transform="translate(144.17537, 20.507745)"><g><path d="M 1.703125 0 L 1.703125 -10.546875 L 0.15625 -10.546875 L 0.15625 -13.046875 L 5.859375 -13.046875 L 5.859375 -10.546875 L 4.3125 -10.546875 L 4.3125 0 Z M 1.703125 0 "/></g></g></g><g fill="#0b2134" fill-opacity="1"><g transform="translate(150.188351, 20.507745)"><g><path d="M 0.453125 0 L 0.453125 -13.046875 L 2.984375 -13.046875 L 2.984375 0 Z M 0.453125 0 "/></g></g></g><g fill="#0b2134" fill-opacity="1"><g transform="translate(153.635187, 20.507745)"><g><path d="M 3.609375 0.125 C 2.660156 0.125 1.898438 -0.171875 1.328125 -0.765625 C 0.753906 -1.367188 0.46875 -2.191406 0.46875 -3.234375 L 0.46875 -9.25 C 0.46875 -10.539062 0.722656 -11.515625 1.234375 -12.171875 C 1.753906 -12.835938 2.566406 -13.171875 3.671875 -13.171875 C 4.640625 -13.171875 5.414062 -12.90625 6 -12.375 C 6.582031 -11.851562 6.875 -11.09375 6.875 -10.09375 L 6.875 -7.859375 L 4.28125 -7.859375 L 4.28125 -9.78125 C 4.28125 -10.15625 4.234375 -10.410156 4.140625 -10.546875 C 4.054688 -10.691406 3.898438 -10.765625 3.671875 -10.765625 C 3.441406 -10.765625 3.28125 -10.679688 3.1875 -10.515625 C 3.101562 -10.359375 3.0625 -10.125 3.0625 -9.8125 L 3.0625 -3.265625 C 3.0625 -2.921875 3.113281 -2.671875 3.21875 -2.515625 C 3.320312 -2.359375 3.472656 -2.28125 3.671875 -2.28125 C 4.078125 -2.28125 4.28125 -2.609375 4.28125 -3.265625 L 4.28125 -5.625 L 6.90625 -5.625 L 6.90625 -3.15625 C 6.90625 -0.96875 5.804688 0.125 3.609375 0.125 Z M 3.609375 0.125 "/></g></g></g><g fill="#0b2134" fill-opacity="1"><g transform="translate(160.832542, 20.507745)"><g><path d="M 3.671875 0.125 C 2.492188 0.125 1.640625 -0.164062 1.109375 -0.75 C 0.578125 -1.34375 0.3125 -2.289062 0.3125 -3.59375 L 0.3125 -4.875 L 2.890625 -4.875 L 2.890625 -3.25 C 2.890625 -2.601562 3.097656 -2.28125 3.515625 -2.28125 C 3.742188 -2.28125 3.898438 -2.347656 3.984375 -2.484375 C 4.078125 -2.617188 4.125 -2.847656 4.125 -3.171875 C 4.125 -3.597656 4.070312 -3.945312 3.96875 -4.21875 C 3.875 -4.5 3.75 -4.734375 3.59375 -4.921875 C 3.4375 -5.109375 3.15625 -5.398438 2.75 -5.796875 L 1.625 -6.921875 C 0.75 -7.773438 0.3125 -8.71875 0.3125 -9.75 C 0.3125 -10.863281 0.566406 -11.710938 1.078125 -12.296875 C 1.597656 -12.878906 2.347656 -13.171875 3.328125 -13.171875 C 4.503906 -13.171875 5.347656 -12.859375 5.859375 -12.234375 C 6.378906 -11.609375 6.640625 -10.632812 6.640625 -9.3125 L 3.984375 -9.3125 L 3.96875 -10.203125 C 3.96875 -10.378906 3.914062 -10.515625 3.8125 -10.609375 C 3.71875 -10.710938 3.585938 -10.765625 3.421875 -10.765625 C 3.210938 -10.765625 3.054688 -10.707031 2.953125 -10.59375 C 2.859375 -10.488281 2.8125 -10.335938 2.8125 -10.140625 C 2.8125 -9.710938 3.050781 -9.273438 3.53125 -8.828125 L 5.0625 -7.359375 C 5.414062 -7.015625 5.707031 -6.6875 5.9375 -6.375 C 6.164062 -6.070312 6.351562 -5.707031 6.5 -5.28125 C 6.644531 -4.863281 6.71875 -4.367188 6.71875 -3.796875 C 6.71875 -2.515625 6.476562 -1.539062 6 -0.875 C 5.53125 -0.207031 4.753906 0.125 3.671875 0.125 Z M 3.671875 0.125 "/></g></g></g><g clip-path="url(#274454826c)"><path fill="#0b2134" d="M -8.308594 36.710938 L 27.066406 -5.542969 L -8.308594 -5.542969 L -8.308594 -13.328125 L 42.632812 -13.328125 L -8.308594 47.523438 Z M -8.308594 36.710938 " fill-opacity="1" fill-rule="evenodd"/></g><g clip-path="url(#5272a3fd0d)"><path fill="#407ab1" d="M -8.308594 -4.539062 L 24.921875 -4.539062 L -22.871094 52.546875 L -22.871094 -4.539062 Z M 27.066406 -6.546875 L -24.878906 -6.546875 L -24.878906 58.0625 L 29.210938 -6.546875 Z M 27.066406 -6.546875 " fill-opacity="1" fill-rule="nonzero"/></g><g fill="#0b2134" fill-opacity="1"><g transform="translate(34.590252, 31.238962)"><g><path d="M 4.34375 -4.875 C 4.300781 -5.195312 4.144531 -5.445312 3.875 -5.625 C 3.601562 -5.800781 3.269531 -5.890625 2.875 -5.890625 C 2.445312 -5.890625 2.101562 -5.785156 1.84375 -5.578125 C 1.582031 -5.378906 1.453125 -5.125 1.453125 -4.8125 C 1.453125 -4.582031 1.519531 -4.394531 1.65625 -4.25 C 1.800781 -4.101562 1.972656 -3.988281 2.171875 -3.90625 C 2.367188 -3.832031 2.546875 -3.773438 2.703125 -3.734375 L 3.359375 -3.5625 C 3.535156 -3.507812 3.726562 -3.441406 3.9375 -3.359375 C 4.144531 -3.285156 4.34375 -3.179688 4.53125 -3.046875 C 4.71875 -2.910156 4.875 -2.738281 5 -2.53125 C 5.125 -2.320312 5.1875 -2.066406 5.1875 -1.765625 C 5.1875 -1.410156 5.09375 -1.09375 4.90625 -0.8125 C 4.726562 -0.53125 4.460938 -0.304688 4.109375 -0.140625 C 3.765625 0.0234375 3.34375 0.109375 2.84375 0.109375 C 2.144531 0.109375 1.585938 -0.0507812 1.171875 -0.375 C 0.765625 -0.707031 0.546875 -1.140625 0.515625 -1.671875 L 1.328125 -1.671875 C 1.347656 -1.429688 1.425781 -1.226562 1.5625 -1.0625 C 1.707031 -0.90625 1.890625 -0.785156 2.109375 -0.703125 C 2.335938 -0.628906 2.582031 -0.59375 2.84375 -0.59375 C 3.144531 -0.59375 3.414062 -0.640625 3.65625 -0.734375 C 3.894531 -0.835938 4.082031 -0.976562 4.21875 -1.15625 C 4.363281 -1.332031 4.4375 -1.539062 4.4375 -1.78125 C 4.4375 -1.988281 4.375 -2.160156 4.25 -2.296875 C 4.125 -2.429688 3.960938 -2.539062 3.765625 -2.625 C 3.578125 -2.71875 3.367188 -2.796875 3.140625 -2.859375 L 2.34375 -3.078125 C 1.832031 -3.222656 1.425781 -3.429688 1.125 -3.703125 C 0.832031 -3.972656 0.6875 -4.332031 0.6875 -4.78125 C 0.6875 -5.132812 0.785156 -5.445312 0.984375 -5.71875 C 1.179688 -6 1.445312 -6.210938 1.78125 -6.359375 C 2.113281 -6.515625 2.488281 -6.59375 2.90625 -6.59375 C 3.320312 -6.59375 3.691406 -6.515625 4.015625 -6.359375 C 4.347656 -6.210938 4.609375 -6.007812 4.796875 -5.75 C 4.992188 -5.488281 5.097656 -5.195312 5.109375 -4.875 Z M 4.34375 -4.875 "/></g></g></g><g fill="#0b2134" fill-opacity="1"><g transform="translate(40.284429, 31.238962)"><g><path d="M 0.6875 0 L 0.6875 -4.875 L 1.40625 -4.875 L 1.40625 -4.109375 L 1.46875 -4.109375 C 1.570312 -4.367188 1.734375 -4.570312 1.953125 -4.71875 C 2.179688 -4.863281 2.457031 -4.9375 2.78125 -4.9375 C 3.101562 -4.9375 3.367188 -4.863281 3.578125 -4.71875 C 3.796875 -4.570312 3.96875 -4.367188 4.09375 -4.109375 L 4.140625 -4.109375 C 4.265625 -4.359375 4.453125 -4.554688 4.703125 -4.703125 C 4.953125 -4.859375 5.25 -4.9375 5.59375 -4.9375 C 6.03125 -4.9375 6.382812 -4.800781 6.65625 -4.53125 C 6.9375 -4.257812 7.078125 -3.835938 7.078125 -3.265625 L 7.078125 0 L 6.328125 0 L 6.328125 -3.265625 C 6.328125 -3.617188 6.226562 -3.875 6.03125 -4.03125 C 5.84375 -4.1875 5.613281 -4.265625 5.34375 -4.265625 C 5 -4.265625 4.734375 -4.160156 4.546875 -3.953125 C 4.359375 -3.742188 4.265625 -3.484375 4.265625 -3.171875 L 4.265625 0 L 3.5 0 L 3.5 -3.34375 C 3.5 -3.613281 3.410156 -3.832031 3.234375 -4 C 3.054688 -4.175781 2.828125 -4.265625 2.546875 -4.265625 C 2.347656 -4.265625 2.164062 -4.210938 2 -4.109375 C 1.832031 -4.003906 1.695312 -3.859375 1.59375 -3.671875 C 1.488281 -3.492188 1.4375 -3.285156 1.4375 -3.046875 L 1.4375 0 Z M 0.6875 0 "/></g></g></g><g fill="#0b2134" fill-opacity="1"><g transform="translate(48.045759, 31.238962)"><g><path d="M 2.125 0.109375 C 1.8125 0.109375 1.53125 0.0507812 1.28125 -0.0625 C 1.03125 -0.175781 0.828125 -0.34375 0.671875 -0.5625 C 0.523438 -0.789062 0.453125 -1.066406 0.453125 -1.390625 C 0.453125 -1.660156 0.503906 -1.882812 0.609375 -2.0625 C 0.722656 -2.238281 0.875 -2.375 1.0625 -2.46875 C 1.25 -2.570312 1.453125 -2.648438 1.671875 -2.703125 C 1.898438 -2.753906 2.125 -2.789062 2.34375 -2.8125 C 2.644531 -2.851562 2.882812 -2.882812 3.0625 -2.90625 C 3.25 -2.925781 3.382812 -2.957031 3.46875 -3 C 3.5625 -3.050781 3.609375 -3.140625 3.609375 -3.265625 L 3.609375 -3.28125 C 3.609375 -3.601562 3.519531 -3.847656 3.34375 -4.015625 C 3.175781 -4.191406 2.921875 -4.28125 2.578125 -4.28125 C 2.222656 -4.28125 1.941406 -4.203125 1.734375 -4.046875 C 1.535156 -3.890625 1.394531 -3.722656 1.3125 -3.546875 L 0.59375 -3.796875 C 0.71875 -4.085938 0.882812 -4.316406 1.09375 -4.484375 C 1.3125 -4.648438 1.546875 -4.765625 1.796875 -4.828125 C 2.054688 -4.898438 2.304688 -4.9375 2.546875 -4.9375 C 2.703125 -4.9375 2.882812 -4.914062 3.09375 -4.875 C 3.300781 -4.84375 3.5 -4.769531 3.6875 -4.65625 C 3.875 -4.539062 4.03125 -4.367188 4.15625 -4.140625 C 4.289062 -3.910156 4.359375 -3.601562 4.359375 -3.21875 L 4.359375 0 L 3.609375 0 L 3.609375 -0.65625 L 3.5625 -0.65625 C 3.507812 -0.550781 3.425781 -0.4375 3.3125 -0.3125 C 3.195312 -0.195312 3.039062 -0.0976562 2.84375 -0.015625 C 2.644531 0.0664062 2.40625 0.109375 2.125 0.109375 Z M 2.234375 -0.5625 C 2.523438 -0.5625 2.773438 -0.617188 2.984375 -0.734375 C 3.191406 -0.847656 3.347656 -0.992188 3.453125 -1.171875 C 3.554688 -1.359375 3.609375 -1.554688 3.609375 -1.765625 L 3.609375 -2.453125 C 3.578125 -2.410156 3.503906 -2.375 3.390625 -2.34375 C 3.285156 -2.3125 3.164062 -2.285156 3.03125 -2.265625 C 2.894531 -2.242188 2.757812 -2.222656 2.625 -2.203125 C 2.5 -2.191406 2.394531 -2.179688 2.3125 -2.171875 C 2.113281 -2.148438 1.929688 -2.109375 1.765625 -2.046875 C 1.597656 -1.992188 1.460938 -1.910156 1.359375 -1.796875 C 1.253906 -1.679688 1.203125 -1.53125 1.203125 -1.34375 C 1.203125 -1.082031 1.296875 -0.882812 1.484375 -0.75 C 1.679688 -0.625 1.929688 -0.5625 2.234375 -0.5625 Z M 2.234375 -0.5625 "/></g></g></g><g fill="#0b2134" fill-opacity="1"><g transform="translate(53.080474, 31.238962)"><g><path d="M 0.6875 0 L 0.6875 -4.875 L 1.40625 -4.875 L 1.40625 -4.140625 L 1.453125 -4.140625 C 1.546875 -4.378906 1.707031 -4.570312 1.9375 -4.71875 C 2.164062 -4.875 2.429688 -4.953125 2.734375 -4.953125 C 2.867188 -4.953125 2.984375 -4.9375 3.078125 -4.90625 C 3.179688 -4.875 3.273438 -4.832031 3.359375 -4.78125 L 3.09375 -4.140625 C 3.039062 -4.171875 2.976562 -4.191406 2.90625 -4.203125 C 2.84375 -4.222656 2.765625 -4.234375 2.671875 -4.234375 C 2.316406 -4.234375 2.019531 -4.125 1.78125 -3.90625 C 1.550781 -3.6875 1.4375 -3.410156 1.4375 -3.078125 L 1.4375 0 Z M 0.6875 0 "/></g></g></g><g fill="#0b2134" fill-opacity="1"><g transform="translate(56.504588, 31.238962)"><g><path d="M 2.8125 -4.875 L 2.8125 -4.234375 L 1.765625 -4.234375 L 1.765625 -1.390625 C 1.765625 -1.179688 1.796875 -1.023438 1.859375 -0.921875 C 1.921875 -0.816406 2 -0.742188 2.09375 -0.703125 C 2.195312 -0.671875 2.300781 -0.65625 2.40625 -0.65625 C 2.488281 -0.65625 2.554688 -0.660156 2.609375 -0.671875 C 2.660156 -0.679688 2.707031 -0.691406 2.75 -0.703125 L 2.890625 -0.03125 C 2.835938 -0.0078125 2.765625 0.0078125 2.671875 0.03125 C 2.585938 0.0507812 2.476562 0.0625 2.34375 0.0625 C 2.125 0.0625 1.910156 0.0195312 1.703125 -0.0625 C 1.503906 -0.15625 1.335938 -0.296875 1.203125 -0.484375 C 1.078125 -0.671875 1.015625 -0.90625 1.015625 -1.1875 L 1.015625 -4.234375 L 0.28125 -4.234375 L 0.28125 -4.875 L 1.015625 -4.875 L 1.015625 -6.046875 L 1.765625 -6.046875 L 1.765625 -4.875 Z M 2.8125 -4.875 "/></g></g></g><g fill="#0b2134" fill-opacity="1"><g transform="translate(59.751156, 31.238962)"><g><path d="M 1.796875 -0.890625 L 1.75 -0.546875 C 1.71875 -0.304688 1.664062 -0.0507812 1.59375 0.21875 C 1.519531 0.5 1.441406 0.757812 1.359375 1 C 1.285156 1.25 1.222656 1.445312 1.171875 1.59375 L 0.59375 1.59375 C 0.625 1.457031 0.660156 1.273438 0.703125 1.046875 C 0.742188 0.828125 0.785156 0.578125 0.828125 0.296875 C 0.878906 0.0234375 0.921875 -0.25 0.953125 -0.53125 L 0.984375 -0.890625 Z M 1.796875 -0.890625 "/></g></g></g><g fill="#0b2134" fill-opacity="1"><g transform="translate(62.249495, 31.238962)"><g/></g></g><g fill="#0b2134" fill-opacity="1"><g transform="translate(64.760517, 31.238962)"><g><path d="M 4.34375 -4.875 C 4.300781 -5.195312 4.144531 -5.445312 3.875 -5.625 C 3.601562 -5.800781 3.269531 -5.890625 2.875 -5.890625 C 2.445312 -5.890625 2.101562 -5.785156 1.84375 -5.578125 C 1.582031 -5.378906 1.453125 -5.125 1.453125 -4.8125 C 1.453125 -4.582031 1.519531 -4.394531 1.65625 -4.25 C 1.800781 -4.101562 1.972656 -3.988281 2.171875 -3.90625 C 2.367188 -3.832031 2.546875 -3.773438 2.703125 -3.734375 L 3.359375 -3.5625 C 3.535156 -3.507812 3.726562 -3.441406 3.9375 -3.359375 C 4.144531 -3.285156 4.34375 -3.179688 4.53125 -3.046875 C 4.71875 -2.910156 4.875 -2.738281 5 -2.53125 C 5.125 -2.320312 5.1875 -2.066406 5.1875 -1.765625 C 5.1875 -1.410156 5.09375 -1.09375 4.90625 -0.8125 C 4.726562 -0.53125 4.460938 -0.304688 4.109375 -0.140625 C 3.765625 0.0234375 3.34375 0.109375 2.84375 0.109375 C 2.144531 0.109375 1.585938 -0.0507812 1.171875 -0.375 C 0.765625 -0.707031 0.546875 -1.140625 0.515625 -1.671875 L 1.328125 -1.671875 C 1.347656 -1.429688 1.425781 -1.226562 1.5625 -1.0625 C 1.707031 -0.90625 1.890625 -0.785156 2.109375 -0.703125 C 2.335938 -0.628906 2.582031 -0.59375 2.84375 -0.59375 C 3.144531 -0.59375 3.414062 -0.640625 3.65625 -0.734375 C 3.894531 -0.835938 4.082031 -0.976562 4.21875 -1.15625 C 4.363281 -1.332031 4.4375 -1.539062 4.4375 -1.78125 C 4.4375 -1.988281 4.375 -2.160156 4.25 -2.296875 C 4.125 -2.429688 3.960938 -2.539062 3.765625 -2.625 C 3.578125 -2.71875 3.367188 -2.796875 3.140625 -2.859375 L 2.34375 -3.078125 C 1.832031 -3.222656 1.425781 -3.429688 1.125 -3.703125 C 0.832031 -3.972656 0.6875 -4.332031 0.6875 -4.78125 C 0.6875 -5.132812 0.785156 -5.445312 0.984375 -5.71875 C 1.179688 -6 1.445312 -6.210938 1.78125 -6.359375 C 2.113281 -6.515625 2.488281 -6.59375 2.90625 -6.59375 C 3.320312 -6.59375 3.691406 -6.515625 4.015625 -6.359375 C 4.347656 -6.210938 4.609375 -6.007812 4.796875 -5.75 C 4.992188 -5.488281 5.097656 -5.195312 5.109375 -4.875 Z M 4.34375 -4.875 "/></g></g></g><g fill="#0b2134" fill-opacity="1"><g transform="translate(70.454694, 31.238962)"><g><path d="M 3.765625 -2 L 3.765625 -4.875 L 4.5 -4.875 L 4.5 0 L 3.765625 0 L 3.765625 -0.828125 L 3.703125 -0.828125 C 3.585938 -0.578125 3.410156 -0.363281 3.171875 -0.1875 C 2.929688 -0.0195312 2.628906 0.0625 2.265625 0.0625 C 1.804688 0.0625 1.425781 -0.0859375 1.125 -0.390625 C 0.832031 -0.691406 0.6875 -1.15625 0.6875 -1.78125 L 0.6875 -4.875 L 1.4375 -4.875 L 1.4375 -1.828125 C 1.4375 -1.472656 1.535156 -1.1875 1.734375 -0.96875 C 1.929688 -0.757812 2.1875 -0.65625 2.5 -0.65625 C 2.6875 -0.65625 2.875 -0.703125 3.0625 -0.796875 C 3.257812 -0.898438 3.425781 -1.046875 3.5625 -1.234375 C 3.695312 -1.429688 3.765625 -1.6875 3.765625 -2 Z M 3.765625 -2 "/></g></g></g><g fill="#0b2134" fill-opacity="1"><g transform="translate(75.641589, 31.238962)"><g><path d="M 4.140625 -3.78125 L 3.46875 -3.59375 C 3.40625 -3.757812 3.296875 -3.914062 3.140625 -4.0625 C 2.984375 -4.21875 2.738281 -4.296875 2.40625 -4.296875 C 2.113281 -4.296875 1.867188 -4.222656 1.671875 -4.078125 C 1.472656 -3.941406 1.375 -3.769531 1.375 -3.5625 C 1.375 -3.375 1.441406 -3.226562 1.578125 -3.125 C 1.710938 -3.019531 1.921875 -2.929688 2.203125 -2.859375 L 2.9375 -2.671875 C 3.800781 -2.460938 4.234375 -2.023438 4.234375 -1.359375 C 4.234375 -1.078125 4.148438 -0.828125 3.984375 -0.609375 C 3.828125 -0.390625 3.601562 -0.210938 3.3125 -0.078125 C 3.03125 0.046875 2.703125 0.109375 2.328125 0.109375 C 1.828125 0.109375 1.410156 0 1.078125 -0.21875 C 0.753906 -0.4375 0.550781 -0.753906 0.46875 -1.171875 L 1.1875 -1.34375 C 1.3125 -0.820312 1.6875 -0.5625 2.3125 -0.5625 C 2.65625 -0.5625 2.929688 -0.632812 3.140625 -0.78125 C 3.347656 -0.925781 3.453125 -1.109375 3.453125 -1.328125 C 3.453125 -1.671875 3.210938 -1.894531 2.734375 -2 L 1.921875 -2.203125 C 1.472656 -2.304688 1.144531 -2.46875 0.9375 -2.6875 C 0.726562 -2.914062 0.625 -3.195312 0.625 -3.53125 C 0.625 -3.800781 0.703125 -4.039062 0.859375 -4.25 C 1.015625 -4.46875 1.222656 -4.632812 1.484375 -4.75 C 1.753906 -4.875 2.0625 -4.9375 2.40625 -4.9375 C 2.894531 -4.9375 3.273438 -4.828125 3.546875 -4.609375 C 3.828125 -4.398438 4.023438 -4.125 4.140625 -3.78125 Z M 4.140625 -3.78125 "/></g></g></g><g fill="#0b2134" fill-opacity="1"><g transform="translate(80.308531, 31.238962)"><g><path d="M 2.8125 -4.875 L 2.8125 -4.234375 L 1.765625 -4.234375 L 1.765625 -1.390625 C 1.765625 -1.179688 1.796875 -1.023438 1.859375 -0.921875 C 1.921875 -0.816406 2 -0.742188 2.09375 -0.703125 C 2.195312 -0.671875 2.300781 -0.65625 2.40625 -0.65625 C 2.488281 -0.65625 2.554688 -0.660156 2.609375 -0.671875 C 2.660156 -0.679688 2.707031 -0.691406 2.75 -0.703125 L 2.890625 -0.03125 C 2.835938 -0.0078125 2.765625 0.0078125 2.671875 0.03125 C 2.585938 0.0507812 2.476562 0.0625 2.34375 0.0625 C 2.125 0.0625 1.910156 0.0195312 1.703125 -0.0625 C 1.503906 -0.15625 1.335938 -0.296875 1.203125 -0.484375 C 1.078125 -0.671875 1.015625 -0.90625 1.015625 -1.1875 L 1.015625 -4.234375 L 0.28125 -4.234375 L 0.28125 -4.875 L 1.015625 -4.875 L 1.015625 -6.046875 L 1.765625 -6.046875 L 1.765625 -4.875 Z M 2.8125 -4.875 "/></g></g></g><g fill="#0b2134" fill-opacity="1"><g transform="translate(83.5551, 31.238962)"><g><path d="M 2.125 0.109375 C 1.8125 0.109375 1.53125 0.0507812 1.28125 -0.0625 C 1.03125 -0.175781 0.828125 -0.34375 0.671875 -0.5625 C 0.523438 -0.789062 0.453125 -1.066406 0.453125 -1.390625 C 0.453125 -1.660156 0.503906 -1.882812 0.609375 -2.0625 C 0.722656 -2.238281 0.875 -2.375 1.0625 -2.46875 C 1.25 -2.570312 1.453125 -2.648438 1.671875 -2.703125 C 1.898438 -2.753906 2.125 -2.789062 2.34375 -2.8125 C 2.644531 -2.851562 2.882812 -2.882812 3.0625 -2.90625 C 3.25 -2.925781 3.382812 -2.957031 3.46875 -3 C 3.5625 -3.050781 3.609375 -3.140625 3.609375 -3.265625 L 3.609375 -3.28125 C 3.609375 -3.601562 3.519531 -3.847656 3.34375 -4.015625 C 3.175781 -4.191406 2.921875 -4.28125 2.578125 -4.28125 C 2.222656 -4.28125 1.941406 -4.203125 1.734375 -4.046875 C 1.535156 -3.890625 1.394531 -3.722656 1.3125 -3.546875 L 0.59375 -3.796875 C 0.71875 -4.085938 0.882812 -4.316406 1.09375 -4.484375 C 1.3125 -4.648438 1.546875 -4.765625 1.796875 -4.828125 C 2.054688 -4.898438 2.304688 -4.9375 2.546875 -4.9375 C 2.703125 -4.9375 2.882812 -4.914062 3.09375 -4.875 C 3.300781 -4.84375 3.5 -4.769531 3.6875 -4.65625 C 3.875 -4.539062 4.03125 -4.367188 4.15625 -4.140625 C 4.289062 -3.910156 4.359375 -3.601562 4.359375 -3.21875 L 4.359375 0 L 3.609375 0 L 3.609375 -0.65625 L 3.5625 -0.65625 C 3.507812 -0.550781 3.425781 -0.4375 3.3125 -0.3125 C 3.195312 -0.195312 3.039062 -0.0976562 2.84375 -0.015625 C 2.644531 0.0664062 2.40625 0.109375 2.125 0.109375 Z M 2.234375 -0.5625 C 2.523438 -0.5625 2.773438 -0.617188 2.984375 -0.734375 C 3.191406 -0.847656 3.347656 -0.992188 3.453125 -1.171875 C 3.554688 -1.359375 3.609375 -1.554688 3.609375 -1.765625 L 3.609375 -2.453125 C 3.578125 -2.410156 3.503906 -2.375 3.390625 -2.34375 C 3.285156 -2.3125 3.164062 -2.285156 3.03125 -2.265625 C 2.894531 -2.242188 2.757812 -2.222656 2.625 -2.203125 C 2.5 -2.191406 2.394531 -2.179688 2.3125 -2.171875 C 2.113281 -2.148438 1.929688 -2.109375 1.765625 -2.046875 C 1.597656 -1.992188 1.460938 -1.910156 1.359375 -1.796875 C 1.253906 -1.679688 1.203125 -1.53125 1.203125 -1.34375 C 1.203125 -1.082031 1.296875 -0.882812 1.484375 -0.75 C 1.679688 -0.625 1.929688 -0.5625 2.234375 -0.5625 Z M 2.234375 -0.5625 "/></g></g></g><g fill="#0b2134" fill-opacity="1"><g transform="translate(88.589815, 31.238962)"><g><path d="M 0.6875 0 L 0.6875 -4.875 L 1.4375 -4.875 L 1.4375 0 Z M 1.0625 -5.6875 C 0.914062 -5.6875 0.789062 -5.734375 0.6875 -5.828125 C 0.582031 -5.929688 0.53125 -6.054688 0.53125 -6.203125 C 0.53125 -6.335938 0.582031 -6.453125 0.6875 -6.546875 C 0.789062 -6.648438 0.914062 -6.703125 1.0625 -6.703125 C 1.207031 -6.703125 1.332031 -6.648438 1.4375 -6.546875 C 1.539062 -6.453125 1.59375 -6.335938 1.59375 -6.203125 C 1.59375 -6.054688 1.539062 -5.929688 1.4375 -5.828125 C 1.332031 -5.734375 1.207031 -5.6875 1.0625 -5.6875 Z M 1.0625 -5.6875 "/></g></g></g><g fill="#0b2134" fill-opacity="1"><g transform="translate(90.707698, 31.238962)"><g><path d="M 1.4375 -2.9375 L 1.4375 0 L 0.6875 0 L 0.6875 -4.875 L 1.40625 -4.875 L 1.40625 -4.109375 L 1.46875 -4.109375 C 1.582031 -4.359375 1.753906 -4.554688 1.984375 -4.703125 C 2.222656 -4.859375 2.523438 -4.9375 2.890625 -4.9375 C 3.390625 -4.9375 3.789062 -4.785156 4.09375 -4.484375 C 4.394531 -4.179688 4.546875 -3.71875 4.546875 -3.09375 L 4.546875 0 L 3.796875 0 L 3.796875 -3.046875 C 3.796875 -3.429688 3.695312 -3.726562 3.5 -3.9375 C 3.300781 -4.15625 3.023438 -4.265625 2.671875 -4.265625 C 2.316406 -4.265625 2.019531 -4.148438 1.78125 -3.921875 C 1.550781 -3.691406 1.4375 -3.363281 1.4375 -2.9375 Z M 1.4375 -2.9375 "/></g></g></g><g fill="#0b2134" fill-opacity="1"><g transform="translate(95.932641, 31.238962)"><g><path d="M 2.125 0.109375 C 1.8125 0.109375 1.53125 0.0507812 1.28125 -0.0625 C 1.03125 -0.175781 0.828125 -0.34375 0.671875 -0.5625 C 0.523438 -0.789062 0.453125 -1.066406 0.453125 -1.390625 C 0.453125 -1.660156 0.503906 -1.882812 0.609375 -2.0625 C 0.722656 -2.238281 0.875 -2.375 1.0625 -2.46875 C 1.25 -2.570312 1.453125 -2.648438 1.671875 -2.703125 C 1.898438 -2.753906 2.125 -2.789062 2.34375 -2.8125 C 2.644531 -2.851562 2.882812 -2.882812 3.0625 -2.90625 C 3.25 -2.925781 3.382812 -2.957031 3.46875 -3 C 3.5625 -3.050781 3.609375 -3.140625 3.609375 -3.265625 L 3.609375 -3.28125 C 3.609375 -3.601562 3.519531 -3.847656 3.34375 -4.015625 C 3.175781 -4.191406 2.921875 -4.28125 2.578125 -4.28125 C 2.222656 -4.28125 1.941406 -4.203125 1.734375 -4.046875 C 1.535156 -3.890625 1.394531 -3.722656 1.3125 -3.546875 L 0.59375 -3.796875 C 0.71875 -4.085938 0.882812 -4.316406 1.09375 -4.484375 C 1.3125 -4.648438 1.546875 -4.765625 1.796875 -4.828125 C 2.054688 -4.898438 2.304688 -4.9375 2.546875 -4.9375 C 2.703125 -4.9375 2.882812 -4.914062 3.09375 -4.875 C 3.300781 -4.84375 3.5 -4.769531 3.6875 -4.65625 C 3.875 -4.539062 4.03125 -4.367188 4.15625 -4.140625 C 4.289062 -3.910156 4.359375 -3.601562 4.359375 -3.21875 L 4.359375 0 L 3.609375 0 L 3.609375 -0.65625 L 3.5625 -0.65625 C 3.507812 -0.550781 3.425781 -0.4375 3.3125 -0.3125 C 3.195312 -0.195312 3.039062 -0.0976562 2.84375 -0.015625 C 2.644531 0.0664062 2.40625 0.109375 2.125 0.109375 Z M 2.234375 -0.5625 C 2.523438 -0.5625 2.773438 -0.617188 2.984375 -0.734375 C 3.191406 -0.847656 3.347656 -0.992188 3.453125 -1.171875 C 3.554688 -1.359375 3.609375 -1.554688 3.609375 -1.765625 L 3.609375 -2.453125 C 3.578125 -2.410156 3.503906 -2.375 3.390625 -2.34375 C 3.285156 -2.3125 3.164062 -2.285156 3.03125 -2.265625 C 2.894531 -2.242188 2.757812 -2.222656 2.625 -2.203125 C 2.5 -2.191406 2.394531 -2.179688 2.3125 -2.171875 C 2.113281 -2.148438 1.929688 -2.109375 1.765625 -2.046875 C 1.597656 -1.992188 1.460938 -1.910156 1.359375 -1.796875 C 1.253906 -1.679688 1.203125 -1.53125 1.203125 -1.34375 C 1.203125 -1.082031 1.296875 -0.882812 1.484375 -0.75 C 1.679688 -0.625 1.929688 -0.5625 2.234375 -0.5625 Z M 2.234375 -0.5625 "/></g></g></g><g fill="#0b2134" fill-opacity="1"><g transform="translate(100.967356, 31.238962)"><g><path d="M 0.78125 0 L 0.78125 -6.5 L 1.53125 -6.5 L 1.53125 -4.09375 L 1.59375 -4.09375 C 1.65625 -4.1875 1.734375 -4.296875 1.828125 -4.421875 C 1.929688 -4.554688 2.070312 -4.675781 2.25 -4.78125 C 2.4375 -4.882812 2.691406 -4.9375 3.015625 -4.9375 C 3.421875 -4.9375 3.78125 -4.832031 4.09375 -4.625 C 4.40625 -4.425781 4.648438 -4.132812 4.828125 -3.75 C 5.003906 -3.375 5.09375 -2.929688 5.09375 -2.421875 C 5.09375 -1.910156 5.003906 -1.460938 4.828125 -1.078125 C 4.648438 -0.703125 4.40625 -0.410156 4.09375 -0.203125 C 3.78125 0.00390625 3.421875 0.109375 3.015625 0.109375 C 2.703125 0.109375 2.453125 0.0546875 2.265625 -0.046875 C 2.078125 -0.160156 1.929688 -0.28125 1.828125 -0.40625 C 1.734375 -0.539062 1.65625 -0.65625 1.59375 -0.75 L 1.515625 -0.75 L 1.515625 0 Z M 1.53125 -2.4375 C 1.53125 -1.882812 1.648438 -1.4375 1.890625 -1.09375 C 2.128906 -0.75 2.472656 -0.578125 2.921875 -0.578125 C 3.234375 -0.578125 3.492188 -0.65625 3.703125 -0.8125 C 3.910156 -0.976562 4.066406 -1.203125 4.171875 -1.484375 C 4.285156 -1.773438 4.34375 -2.09375 4.34375 -2.4375 C 4.34375 -2.78125 4.289062 -3.085938 4.1875 -3.359375 C 4.082031 -3.640625 3.921875 -3.859375 3.703125 -4.015625 C 3.492188 -4.179688 3.234375 -4.265625 2.921875 -4.265625 C 2.460938 -4.265625 2.113281 -4.09375 1.875 -3.75 C 1.644531 -3.414062 1.53125 -2.976562 1.53125 -2.4375 Z M 1.53125 -2.4375 "/></g></g></g><g fill="#0b2134" fill-opacity="1"><g transform="translate(106.509353, 31.238962)"><g><path d="M 1.4375 -6.5 L 1.4375 0 L 0.6875 0 L 0.6875 -6.5 Z M 1.4375 -6.5 "/></g></g></g><g fill="#0b2134" fill-opacity="1"><g transform="translate(108.627237, 31.238962)"><g><path d="M 2.734375 0.109375 C 2.265625 0.109375 1.859375 0.00390625 1.515625 -0.203125 C 1.171875 -0.421875 0.90625 -0.71875 0.71875 -1.09375 C 0.539062 -1.46875 0.453125 -1.90625 0.453125 -2.40625 C 0.453125 -2.90625 0.539062 -3.34375 0.71875 -3.71875 C 0.90625 -4.101562 1.164062 -4.398438 1.5 -4.609375 C 1.832031 -4.828125 2.21875 -4.9375 2.65625 -4.9375 C 2.90625 -4.9375 3.15625 -4.894531 3.40625 -4.8125 C 3.65625 -4.726562 3.878906 -4.585938 4.078125 -4.390625 C 4.285156 -4.203125 4.445312 -3.953125 4.5625 -3.640625 C 4.6875 -3.335938 4.75 -2.957031 4.75 -2.5 L 4.75 -2.1875 L 1.203125 -2.1875 C 1.222656 -1.664062 1.367188 -1.265625 1.640625 -0.984375 C 1.921875 -0.710938 2.285156 -0.578125 2.734375 -0.578125 C 3.023438 -0.578125 3.273438 -0.640625 3.484375 -0.765625 C 3.703125 -0.890625 3.859375 -1.078125 3.953125 -1.328125 L 4.671875 -1.125 C 4.554688 -0.757812 4.328125 -0.460938 3.984375 -0.234375 C 3.640625 -0.00390625 3.222656 0.109375 2.734375 0.109375 Z M 1.203125 -2.828125 L 3.984375 -2.828125 C 3.984375 -3.242188 3.863281 -3.585938 3.625 -3.859375 C 3.382812 -4.128906 3.0625 -4.265625 2.65625 -4.265625 C 2.363281 -4.265625 2.113281 -4.195312 1.90625 -4.0625 C 1.695312 -3.925781 1.53125 -3.75 1.40625 -3.53125 C 1.289062 -3.3125 1.222656 -3.078125 1.203125 -2.828125 Z M 1.203125 -2.828125 "/></g></g></g><g fill="#0b2134" fill-opacity="1"><g transform="translate(113.826814, 31.238962)"><g><path d="M 1.796875 -0.890625 L 1.75 -0.546875 C 1.71875 -0.304688 1.664062 -0.0507812 1.59375 0.21875 C 1.519531 0.5 1.441406 0.757812 1.359375 1 C 1.285156 1.25 1.222656 1.445312 1.171875 1.59375 L 0.59375 1.59375 C 0.625 1.457031 0.660156 1.273438 0.703125 1.046875 C 0.742188 0.828125 0.785156 0.578125 0.828125 0.296875 C 0.878906 0.0234375 0.921875 -0.25 0.953125 -0.53125 L 0.984375 -0.890625 Z M 1.796875 -0.890625 "/></g></g></g><g fill="#0b2134" fill-opacity="1"><g transform="translate(116.325154, 31.238962)"><g/></g></g><g fill="#0b2134" fill-opacity="1"><g transform="translate(118.836175, 31.238962)"><g><path d="M 2.796875 0 L 0.78125 0 L 0.78125 -6.5 L 2.875 -6.5 C 3.507812 -6.5 4.050781 -6.367188 4.5 -6.109375 C 4.945312 -5.847656 5.289062 -5.472656 5.53125 -4.984375 C 5.769531 -4.503906 5.890625 -3.929688 5.890625 -3.265625 C 5.890625 -2.585938 5.769531 -2.003906 5.53125 -1.515625 C 5.289062 -1.023438 4.9375 -0.648438 4.46875 -0.390625 C 4.007812 -0.128906 3.453125 0 2.796875 0 Z M 1.578125 -0.703125 L 2.75 -0.703125 C 3.550781 -0.703125 4.144531 -0.929688 4.53125 -1.390625 C 4.925781 -1.847656 5.125 -2.472656 5.125 -3.265625 C 5.125 -4.046875 4.929688 -4.660156 4.546875 -5.109375 C 4.160156 -5.566406 3.585938 -5.796875 2.828125 -5.796875 L 1.578125 -5.796875 Z M 1.578125 -0.703125 "/></g></g></g><g fill="#0b2134" fill-opacity="1"><g transform="translate(125.253216, 31.238962)"><g><path d="M 2.125 0.109375 C 1.8125 0.109375 1.53125 0.0507812 1.28125 -0.0625 C 1.03125 -0.175781 0.828125 -0.34375 0.671875 -0.5625 C 0.523438 -0.789062 0.453125 -1.066406 0.453125 -1.390625 C 0.453125 -1.660156 0.503906 -1.882812 0.609375 -2.0625 C 0.722656 -2.238281 0.875 -2.375 1.0625 -2.46875 C 1.25 -2.570312 1.453125 -2.648438 1.671875 -2.703125 C 1.898438 -2.753906 2.125 -2.789062 2.34375 -2.8125 C 2.644531 -2.851562 2.882812 -2.882812 3.0625 -2.90625 C 3.25 -2.925781 3.382812 -2.957031 3.46875 -3 C 3.5625 -3.050781 3.609375 -3.140625 3.609375 -3.265625 L 3.609375 -3.28125 C 3.609375 -3.601562 3.519531 -3.847656 3.34375 -4.015625 C 3.175781 -4.191406 2.921875 -4.28125 2.578125 -4.28125 C 2.222656 -4.28125 1.941406 -4.203125 1.734375 -4.046875 C 1.535156 -3.890625 1.394531 -3.722656 1.3125 -3.546875 L 0.59375 -3.796875 C 0.71875 -4.085938 0.882812 -4.316406 1.09375 -4.484375 C 1.3125 -4.648438 1.546875 -4.765625 1.796875 -4.828125 C 2.054688 -4.898438 2.304688 -4.9375 2.546875 -4.9375 C 2.703125 -4.9375 2.882812 -4.914062 3.09375 -4.875 C 3.300781 -4.84375 3.5 -4.769531 3.6875 -4.65625 C 3.875 -4.539062 4.03125 -4.367188 4.15625 -4.140625 C 4.289062 -3.910156 4.359375 -3.601562 4.359375 -3.21875 L 4.359375 0 L 3.609375 0 L 3.609375 -0.65625 L 3.5625 -0.65625 C 3.507812 -0.550781 3.425781 -0.4375 3.3125 -0.3125 C 3.195312 -0.195312 3.039062 -0.0976562 2.84375 -0.015625 C 2.644531 0.0664062 2.40625 0.109375 2.125 0.109375 Z M 2.234375 -0.5625 C 2.523438 -0.5625 2.773438 -0.617188 2.984375 -0.734375 C 3.191406 -0.847656 3.347656 -0.992188 3.453125 -1.171875 C 3.554688 -1.359375 3.609375 -1.554688 3.609375 -1.765625 L 3.609375 -2.453125 C 3.578125 -2.410156 3.503906 -2.375 3.390625 -2.34375 C 3.285156 -2.3125 3.164062 -2.285156 3.03125 -2.265625 C 2.894531 -2.242188 2.757812 -2.222656 2.625 -2.203125 C 2.5 -2.191406 2.394531 -2.179688 2.3125 -2.171875 C 2.113281 -2.148438 1.929688 -2.109375 1.765625 -2.046875 C 1.597656 -1.992188 1.460938 -1.910156 1.359375 -1.796875 C 1.253906 -1.679688 1.203125 -1.53125 1.203125 -1.34375 C 1.203125 -1.082031 1.296875 -0.882812 1.484375 -0.75 C 1.679688 -0.625 1.929688 -0.5625 2.234375 -0.5625 Z M 2.234375 -0.5625 "/></g></g></g><g fill="#0b2134" fill-opacity="1"><g transform="translate(130.287931, 31.238962)"><g><path d="M 2.8125 -4.875 L 2.8125 -4.234375 L 1.765625 -4.234375 L 1.765625 -1.390625 C 1.765625 -1.179688 1.796875 -1.023438 1.859375 -0.921875 C 1.921875 -0.816406 2 -0.742188 2.09375 -0.703125 C 2.195312 -0.671875 2.300781 -0.65625 2.40625 -0.65625 C 2.488281 -0.65625 2.554688 -0.660156 2.609375 -0.671875 C 2.660156 -0.679688 2.707031 -0.691406 2.75 -0.703125 L 2.890625 -0.03125 C 2.835938 -0.0078125 2.765625 0.0078125 2.671875 0.03125 C 2.585938 0.0507812 2.476562 0.0625 2.34375 0.0625 C 2.125 0.0625 1.910156 0.0195312 1.703125 -0.0625 C 1.503906 -0.15625 1.335938 -0.296875 1.203125 -0.484375 C 1.078125 -0.671875 1.015625 -0.90625 1.015625 -1.1875 L 1.015625 -4.234375 L 0.28125 -4.234375 L 0.28125 -4.875 L 1.015625 -4.875 L 1.015625 -6.046875 L 1.765625 -6.046875 L 1.765625 -4.875 Z M 2.8125 -4.875 "/></g></g></g><g fill="#0b2134" fill-opacity="1"><g transform="translate(133.534499, 31.238962)"><g><path d="M 2.125 0.109375 C 1.8125 0.109375 1.53125 0.0507812 1.28125 -0.0625 C 1.03125 -0.175781 0.828125 -0.34375 0.671875 -0.5625 C 0.523438 -0.789062 0.453125 -1.066406 0.453125 -1.390625 C 0.453125 -1.660156 0.503906 -1.882812 0.609375 -2.0625 C 0.722656 -2.238281 0.875 -2.375 1.0625 -2.46875 C 1.25 -2.570312 1.453125 -2.648438 1.671875 -2.703125 C 1.898438 -2.753906 2.125 -2.789062 2.34375 -2.8125 C 2.644531 -2.851562 2.882812 -2.882812 3.0625 -2.90625 C 3.25 -2.925781 3.382812 -2.957031 3.46875 -3 C 3.5625 -3.050781 3.609375 -3.140625 3.609375 -3.265625 L 3.609375 -3.28125 C 3.609375 -3.601562 3.519531 -3.847656 3.34375 -4.015625 C 3.175781 -4.191406 2.921875 -4.28125 2.578125 -4.28125 C 2.222656 -4.28125 1.941406 -4.203125 1.734375 -4.046875 C 1.535156 -3.890625 1.394531 -3.722656 1.3125 -3.546875 L 0.59375 -3.796875 C 0.71875 -4.085938 0.882812 -4.316406 1.09375 -4.484375 C 1.3125 -4.648438 1.546875 -4.765625 1.796875 -4.828125 C 2.054688 -4.898438 2.304688 -4.9375 2.546875 -4.9375 C 2.703125 -4.9375 2.882812 -4.914062 3.09375 -4.875 C 3.300781 -4.84375 3.5 -4.769531 3.6875 -4.65625 C 3.875 -4.539062 4.03125 -4.367188 4.15625 -4.140625 C 4.289062 -3.910156 4.359375 -3.601562 4.359375 -3.21875 L 4.359375 0 L 3.609375 0 L 3.609375 -0.65625 L 3.5625 -0.65625 C 3.507812 -0.550781 3.425781 -0.4375 3.3125 -0.3125 C 3.195312 -0.195312 3.039062 -0.0976562 2.84375 -0.015625 C 2.644531 0.0664062 2.40625 0.109375 2.125 0.109375 Z M 2.234375 -0.5625 C 2.523438 -0.5625 2.773438 -0.617188 2.984375 -0.734375 C 3.191406 -0.847656 3.347656 -0.992188 3.453125 -1.171875 C 3.554688 -1.359375 3.609375 -1.554688 3.609375 -1.765625 L 3.609375 -2.453125 C 3.578125 -2.410156 3.503906 -2.375 3.390625 -2.34375 C 3.285156 -2.3125 3.164062 -2.285156 3.03125 -2.265625 C 2.894531 -2.242188 2.757812 -2.222656 2.625 -2.203125 C 2.5 -2.191406 2.394531 -2.179688 2.3125 -2.171875 C 2.113281 -2.148438 1.929688 -2.109375 1.765625 -2.046875 C 1.597656 -1.992188 1.460938 -1.910156 1.359375 -1.796875 C 1.253906 -1.679688 1.203125 -1.53125 1.203125 -1.34375 C 1.203125 -1.082031 1.296875 -0.882812 1.484375 -0.75 C 1.679688 -0.625 1.929688 -0.5625 2.234375 -0.5625 Z M 2.234375 -0.5625 "/></g></g></g><g fill="#0b2134" fill-opacity="1"><g transform="translate(138.569215, 31.238962)"><g><path d="M 3.484375 -3.140625 L 3.484375 -2.4375 L 0.640625 -2.4375 L 0.640625 -3.140625 Z M 3.484375 -3.140625 "/></g></g></g><g fill="#0b2134" fill-opacity="1"><g transform="translate(142.678155, 31.238962)"><g><path d="M 2.796875 0 L 0.78125 0 L 0.78125 -6.5 L 2.875 -6.5 C 3.507812 -6.5 4.050781 -6.367188 4.5 -6.109375 C 4.945312 -5.847656 5.289062 -5.472656 5.53125 -4.984375 C 5.769531 -4.503906 5.890625 -3.929688 5.890625 -3.265625 C 5.890625 -2.585938 5.769531 -2.003906 5.53125 -1.515625 C 5.289062 -1.023438 4.9375 -0.648438 4.46875 -0.390625 C 4.007812 -0.128906 3.453125 0 2.796875 0 Z M 1.578125 -0.703125 L 2.75 -0.703125 C 3.550781 -0.703125 4.144531 -0.929688 4.53125 -1.390625 C 4.925781 -1.847656 5.125 -2.472656 5.125 -3.265625 C 5.125 -4.046875 4.929688 -4.660156 4.546875 -5.109375 C 4.160156 -5.566406 3.585938 -5.796875 2.828125 -5.796875 L 1.578125 -5.796875 Z M 1.578125 -0.703125 "/></g></g></g><g fill="#0b2134" fill-opacity="1"><g transform="translate(149.095196, 31.238962)"><g><path d="M 0.6875 0 L 0.6875 -4.875 L 1.40625 -4.875 L 1.40625 -4.140625 L 1.453125 -4.140625 C 1.546875 -4.378906 1.707031 -4.570312 1.9375 -4.71875 C 2.164062 -4.875 2.429688 -4.953125 2.734375 -4.953125 C 2.867188 -4.953125 2.984375 -4.9375 3.078125 -4.90625 C 3.179688 -4.875 3.273438 -4.832031 3.359375 -4.78125 L 3.09375 -4.140625 C 3.039062 -4.171875 2.976562 -4.191406 2.90625 -4.203125 C 2.84375 -4.222656 2.765625 -4.234375 2.671875 -4.234375 C 2.316406 -4.234375 2.019531 -4.125 1.78125 -3.90625 C 1.550781 -3.6875 1.4375 -3.410156 1.4375 -3.078125 L 1.4375 0 Z M 0.6875 0 "/></g></g></g><g fill="#0b2134" fill-opacity="1"><g transform="translate(152.51931, 31.238962)"><g><path d="M 0.6875 0 L 0.6875 -4.875 L 1.4375 -4.875 L 1.4375 0 Z M 1.0625 -5.6875 C 0.914062 -5.6875 0.789062 -5.734375 0.6875 -5.828125 C 0.582031 -5.929688 0.53125 -6.054688 0.53125 -6.203125 C 0.53125 -6.335938 0.582031 -6.453125 0.6875 -6.546875 C 0.789062 -6.648438 0.914062 -6.703125 1.0625 -6.703125 C 1.207031 -6.703125 1.332031 -6.648438 1.4375 -6.546875 C 1.539062 -6.453125 1.59375 -6.335938 1.59375 -6.203125 C 1.59375 -6.054688 1.539062 -5.929688 1.4375 -5.828125 C 1.332031 -5.734375 1.207031 -5.6875 1.0625 -5.6875 Z M 1.0625 -5.6875 "/></g></g></g><g fill="#0b2134" fill-opacity="1"><g transform="translate(154.637193, 31.238962)"><g><path d="M 4.671875 -4.875 L 2.875 0 L 2.109375 0 L 0.3125 -4.875 L 1.125 -4.875 L 2.46875 -0.984375 L 2.515625 -0.984375 L 3.859375 -4.875 Z M 4.671875 -4.875 "/></g></g></g><g fill="#0b2134" fill-opacity="1"><g transform="translate(159.608506, 31.238962)"><g><path d="M 2.734375 0.109375 C 2.265625 0.109375 1.859375 0.00390625 1.515625 -0.203125 C 1.171875 -0.421875 0.90625 -0.71875 0.71875 -1.09375 C 0.539062 -1.46875 0.453125 -1.90625 0.453125 -2.40625 C 0.453125 -2.90625 0.539062 -3.34375 0.71875 -3.71875 C 0.90625 -4.101562 1.164062 -4.398438 1.5 -4.609375 C 1.832031 -4.828125 2.21875 -4.9375 2.65625 -4.9375 C 2.90625 -4.9375 3.15625 -4.894531 3.40625 -4.8125 C 3.65625 -4.726562 3.878906 -4.585938 4.078125 -4.390625 C 4.285156 -4.203125 4.445312 -3.953125 4.5625 -3.640625 C 4.6875 -3.335938 4.75 -2.957031 4.75 -2.5 L 4.75 -2.1875 L 1.203125 -2.1875 C 1.222656 -1.664062 1.367188 -1.265625 1.640625 -0.984375 C 1.921875 -0.710938 2.285156 -0.578125 2.734375 -0.578125 C 3.023438 -0.578125 3.273438 -0.640625 3.484375 -0.765625 C 3.703125 -0.890625 3.859375 -1.078125 3.953125 -1.328125 L 4.671875 -1.125 C 4.554688 -0.757812 4.328125 -0.460938 3.984375 -0.234375 C 3.640625 -0.00390625 3.222656 0.109375 2.734375 0.109375 Z M 1.203125 -2.828125 L 3.984375 -2.828125 C 3.984375 -3.242188 3.863281 -3.585938 3.625 -3.859375 C 3.382812 -4.128906 3.0625 -4.265625 2.65625 -4.265625 C 2.363281 -4.265625 2.113281 -4.195312 1.90625 -4.0625 C 1.695312 -3.925781 1.53125 -3.75 1.40625 -3.53125 C 1.289062 -3.3125 1.222656 -3.078125 1.203125 -2.828125 Z M 1.203125 -2.828125 "/></g></g></g><g fill="#0b2134" fill-opacity="1"><g transform="translate(164.808084, 31.238962)"><g><path d="M 1.4375 -2.9375 L 1.4375 0 L 0.6875 0 L 0.6875 -4.875 L 1.40625 -4.875 L 1.40625 -4.109375 L 1.46875 -4.109375 C 1.582031 -4.359375 1.753906 -4.554688 1.984375 -4.703125 C 2.222656 -4.859375 2.523438 -4.9375 2.890625 -4.9375 C 3.390625 -4.9375 3.789062 -4.785156 4.09375 -4.484375 C 4.394531 -4.179688 4.546875 -3.71875 4.546875 -3.09375 L 4.546875 0 L 3.796875 0 L 3.796875 -3.046875 C 3.796875 -3.429688 3.695312 -3.726562 3.5 -3.9375 C 3.300781 -4.15625 3.023438 -4.265625 2.671875 -4.265625 C 2.316406 -4.265625 2.019531 -4.148438 1.78125 -3.921875 C 1.550781 -3.691406 1.4375 -3.363281 1.4375 -2.9375 Z M 1.4375 -2.9375 "/></g></g></g><g fill="#0b2134" fill-opacity="1"><g transform="translate(170.033027, 31.238962)"><g/></g></g><g fill="#0b2134" fill-opacity="1"><g transform="translate(172.544049, 31.238962)"><g><path d="M 1.046875 0 L 0.234375 0 L 2.609375 -6.5 L 3.421875 -6.5 L 5.8125 0 L 4.984375 0 L 4.328125 -1.84375 L 1.703125 -1.84375 Z M 1.953125 -2.546875 L 4.09375 -2.546875 L 3.046875 -5.46875 L 3 -5.46875 Z M 1.953125 -2.546875 "/></g></g></g><g fill="#0b2134" fill-opacity="1"><g transform="translate(178.580634, 31.238962)"><g><path d="M 2.65625 1.9375 C 2.113281 1.9375 1.679688 1.835938 1.359375 1.640625 C 1.046875 1.441406 0.8125 1.210938 0.65625 0.953125 L 1.25 0.53125 C 1.320312 0.625 1.410156 0.726562 1.515625 0.84375 C 1.617188 0.957031 1.757812 1.054688 1.9375 1.140625 C 2.125 1.222656 2.363281 1.265625 2.65625 1.265625 C 3.050781 1.265625 3.375 1.171875 3.625 0.984375 C 3.882812 0.796875 4.015625 0.5 4.015625 0.09375 L 4.015625 -0.90625 L 3.953125 -0.90625 C 3.890625 -0.8125 3.804688 -0.695312 3.703125 -0.5625 C 3.609375 -0.4375 3.46875 -0.320312 3.28125 -0.21875 C 3.09375 -0.125 2.84375 -0.078125 2.53125 -0.078125 C 2.132812 -0.078125 1.78125 -0.171875 1.46875 -0.359375 C 1.15625 -0.546875 0.90625 -0.816406 0.71875 -1.171875 C 0.539062 -1.523438 0.453125 -1.957031 0.453125 -2.46875 C 0.453125 -2.96875 0.539062 -3.398438 0.71875 -3.765625 C 0.894531 -4.140625 1.140625 -4.425781 1.453125 -4.625 C 1.765625 -4.832031 2.128906 -4.9375 2.546875 -4.9375 C 2.859375 -4.9375 3.109375 -4.882812 3.296875 -4.78125 C 3.484375 -4.675781 3.625 -4.554688 3.71875 -4.421875 C 3.820312 -4.296875 3.90625 -4.1875 3.96875 -4.09375 L 4.03125 -4.09375 L 4.03125 -4.875 L 4.765625 -4.875 L 4.765625 0.140625 C 4.765625 0.554688 4.664062 0.894531 4.46875 1.15625 C 4.28125 1.425781 4.023438 1.625 3.703125 1.75 C 3.390625 1.875 3.039062 1.9375 2.65625 1.9375 Z M 2.625 -0.75 C 3.070312 -0.75 3.414062 -0.898438 3.65625 -1.203125 C 3.90625 -1.515625 4.03125 -1.9375 4.03125 -2.46875 C 4.03125 -3 3.910156 -3.429688 3.671875 -3.765625 C 3.429688 -4.097656 3.082031 -4.265625 2.625 -4.265625 C 2.3125 -4.265625 2.046875 -4.179688 1.828125 -4.015625 C 1.617188 -3.859375 1.460938 -3.644531 1.359375 -3.375 C 1.253906 -3.101562 1.203125 -2.800781 1.203125 -2.46875 C 1.203125 -1.96875 1.320312 -1.554688 1.5625 -1.234375 C 1.800781 -0.910156 2.15625 -0.75 2.625 -0.75 Z M 2.625 -0.75 "/></g></g></g><g fill="#0b2134" fill-opacity="1"><g transform="translate(184.02117, 31.238962)"><g><path d="M 0.6875 0 L 0.6875 -4.875 L 1.40625 -4.875 L 1.40625 -4.140625 L 1.453125 -4.140625 C 1.546875 -4.378906 1.707031 -4.570312 1.9375 -4.71875 C 2.164062 -4.875 2.429688 -4.953125 2.734375 -4.953125 C 2.867188 -4.953125 2.984375 -4.9375 3.078125 -4.90625 C 3.179688 -4.875 3.273438 -4.832031 3.359375 -4.78125 L 3.09375 -4.140625 C 3.039062 -4.171875 2.976562 -4.191406 2.90625 -4.203125 C 2.84375 -4.222656 2.765625 -4.234375 2.671875 -4.234375 C 2.316406 -4.234375 2.019531 -4.125 1.78125 -3.90625 C 1.550781 -3.6875 1.4375 -3.410156 1.4375 -3.078125 L 1.4375 0 Z M 0.6875 0 "/></g></g></g><g fill="#0b2134" fill-opacity="1"><g transform="translate(187.445283, 31.238962)"><g><path d="M 0.6875 0 L 0.6875 -4.875 L 1.4375 -4.875 L 1.4375 0 Z M 1.0625 -5.6875 C 0.914062 -5.6875 0.789062 -5.734375 0.6875 -5.828125 C 0.582031 -5.929688 0.53125 -6.054688 0.53125 -6.203125 C 0.53125 -6.335938 0.582031 -6.453125 0.6875 -6.546875 C 0.789062 -6.648438 0.914062 -6.703125 1.0625 -6.703125 C 1.207031 -6.703125 1.332031 -6.648438 1.4375 -6.546875 C 1.539062 -6.453125 1.59375 -6.335938 1.59375 -6.203125 C 1.59375 -6.054688 1.539062 -5.929688 1.4375 -5.828125 C 1.332031 -5.734375 1.207031 -5.6875 1.0625 -5.6875 Z M 1.0625 -5.6875 "/></g></g></g><g fill="#0b2134" fill-opacity="1"><g transform="translate(189.563167, 31.238962)"><g><path d="M 2.671875 0.109375 C 2.210938 0.109375 1.816406 0 1.484375 -0.21875 C 1.148438 -0.4375 0.894531 -0.734375 0.71875 -1.109375 C 0.539062 -1.492188 0.453125 -1.925781 0.453125 -2.40625 C 0.453125 -2.90625 0.539062 -3.34375 0.71875 -3.71875 C 0.90625 -4.101562 1.164062 -4.398438 1.5 -4.609375 C 1.832031 -4.828125 2.21875 -4.9375 2.65625 -4.9375 C 3 -4.9375 3.304688 -4.875 3.578125 -4.75 C 3.859375 -4.625 4.082031 -4.445312 4.25 -4.21875 C 4.425781 -3.988281 4.535156 -3.722656 4.578125 -3.421875 L 3.828125 -3.421875 C 3.773438 -3.640625 3.648438 -3.832031 3.453125 -4 C 3.253906 -4.175781 2.992188 -4.265625 2.671875 -4.265625 C 2.234375 -4.265625 1.878906 -4.097656 1.609375 -3.765625 C 1.335938 -3.429688 1.203125 -2.988281 1.203125 -2.4375 C 1.203125 -1.875 1.332031 -1.421875 1.59375 -1.078125 C 1.863281 -0.742188 2.222656 -0.578125 2.671875 -0.578125 C 2.960938 -0.578125 3.210938 -0.648438 3.421875 -0.796875 C 3.628906 -0.941406 3.765625 -1.148438 3.828125 -1.421875 L 4.578125 -1.421875 C 4.535156 -1.128906 4.429688 -0.867188 4.265625 -0.640625 C 4.097656 -0.410156 3.878906 -0.226562 3.609375 -0.09375 C 3.335938 0.0390625 3.023438 0.109375 2.671875 0.109375 Z M 2.671875 0.109375 "/></g></g></g><g fill="#0b2134" fill-opacity="1"><g transform="translate(194.547151, 31.238962)"><g><path d="M 3.765625 -2 L 3.765625 -4.875 L 4.5 -4.875 L 4.5 0 L 3.765625 0 L 3.765625 -0.828125 L 3.703125 -0.828125 C 3.585938 -0.578125 3.410156 -0.363281 3.171875 -0.1875 C 2.929688 -0.0195312 2.628906 0.0625 2.265625 0.0625 C 1.804688 0.0625 1.425781 -0.0859375 1.125 -0.390625 C 0.832031 -0.691406 0.6875 -1.15625 0.6875 -1.78125 L 0.6875 -4.875 L 1.4375 -4.875 L 1.4375 -1.828125 C 1.4375 -1.472656 1.535156 -1.1875 1.734375 -0.96875 C 1.929688 -0.757812 2.1875 -0.65625 2.5 -0.65625 C 2.6875 -0.65625 2.875 -0.703125 3.0625 -0.796875 C 3.257812 -0.898438 3.425781 -1.046875 3.5625 -1.234375 C 3.695312 -1.429688 3.765625 -1.6875 3.765625 -2 Z M 3.765625 -2 "/></g></g></g><g fill="#0b2134" fill-opacity="1"><g transform="translate(199.734047, 31.238962)"><g><path d="M 1.4375 -6.5 L 1.4375 0 L 0.6875 0 L 0.6875 -6.5 Z M 1.4375 -6.5 "/></g></g></g><g fill="#0b2134" fill-opacity="1"><g transform="translate(201.85193, 31.238962)"><g><path d="M 2.8125 -4.875 L 2.8125 -4.234375 L 1.765625 -4.234375 L 1.765625 -1.390625 C 1.765625 -1.179688 1.796875 -1.023438 1.859375 -0.921875 C 1.921875 -0.816406 2 -0.742188 2.09375 -0.703125 C 2.195312 -0.671875 2.300781 -0.65625 2.40625 -0.65625 C 2.488281 -0.65625 2.554688 -0.660156 2.609375 -0.671875 C 2.660156 -0.679688 2.707031 -0.691406 2.75 -0.703125 L 2.890625 -0.03125 C 2.835938 -0.0078125 2.765625 0.0078125 2.671875 0.03125 C 2.585938 0.0507812 2.476562 0.0625 2.34375 0.0625 C 2.125 0.0625 1.910156 0.0195312 1.703125 -0.0625 C 1.503906 -0.15625 1.335938 -0.296875 1.203125 -0.484375 C 1.078125 -0.671875 1.015625 -0.90625 1.015625 -1.1875 L 1.015625 -4.234375 L 0.28125 -4.234375 L 0.28125 -4.875 L 1.015625 -4.875 L 1.015625 -6.046875 L 1.765625 -6.046875 L 1.765625 -4.875 Z M 2.8125 -4.875 "/></g></g></g><g fill="#0b2134" fill-opacity="1"><g transform="translate(205.098498, 31.238962)"><g><path d="M 3.765625 -2 L 3.765625 -4.875 L 4.5 -4.875 L 4.5 0 L 3.765625 0 L 3.765625 -0.828125 L 3.703125 -0.828125 C 3.585938 -0.578125 3.410156 -0.363281 3.171875 -0.1875 C 2.929688 -0.0195312 2.628906 0.0625 2.265625 0.0625 C 1.804688 0.0625 1.425781 -0.0859375 1.125 -0.390625 C 0.832031 -0.691406 0.6875 -1.15625 0.6875 -1.78125 L 0.6875 -4.875 L 1.4375 -4.875 L 1.4375 -1.828125 C 1.4375 -1.472656 1.535156 -1.1875 1.734375 -0.96875 C 1.929688 -0.757812 2.1875 -0.65625 2.5 -0.65625 C 2.6875 -0.65625 2.875 -0.703125 3.0625 -0.796875 C 3.257812 -0.898438 3.425781 -1.046875 3.5625 -1.234375 C 3.695312 -1.429688 3.765625 -1.6875 3.765625 -2 Z M 3.765625 -2 "/></g></g></g><g fill="#0b2134" fill-opacity="1"><g transform="translate(210.285393, 31.238962)"><g><path d="M 0.6875 0 L 0.6875 -4.875 L 1.40625 -4.875 L 1.40625 -4.140625 L 1.453125 -4.140625 C 1.546875 -4.378906 1.707031 -4.570312 1.9375 -4.71875 C 2.164062 -4.875 2.429688 -4.953125 2.734375 -4.953125 C 2.867188 -4.953125 2.984375 -4.9375 3.078125 -4.90625 C 3.179688 -4.875 3.273438 -4.832031 3.359375 -4.78125 L 3.09375 -4.140625 C 3.039062 -4.171875 2.976562 -4.191406 2.90625 -4.203125 C 2.84375 -4.222656 2.765625 -4.234375 2.671875 -4.234375 C 2.316406 -4.234375 2.019531 -4.125 1.78125 -3.90625 C 1.550781 -3.6875 1.4375 -3.410156 1.4375 -3.078125 L 1.4375 0 Z M 0.6875 0 "/></g></g></g><g fill="#0b2134" fill-opacity="1"><g transform="translate(213.709507, 31.238962)"><g><path d="M 2.734375 0.109375 C 2.265625 0.109375 1.859375 0.00390625 1.515625 -0.203125 C 1.171875 -0.421875 0.90625 -0.71875 0.71875 -1.09375 C 0.539062 -1.46875 0.453125 -1.90625 0.453125 -2.40625 C 0.453125 -2.90625 0.539062 -3.34375 0.71875 -3.71875 C 0.90625 -4.101562 1.164062 -4.398438 1.5 -4.609375 C 1.832031 -4.828125 2.21875 -4.9375 2.65625 -4.9375 C 2.90625 -4.9375 3.15625 -4.894531 3.40625 -4.8125 C 3.65625 -4.726562 3.878906 -4.585938 4.078125 -4.390625 C 4.285156 -4.203125 4.445312 -3.953125 4.5625 -3.640625 C 4.6875 -3.335938 4.75 -2.957031 4.75 -2.5 L 4.75 -2.1875 L 1.203125 -2.1875 C 1.222656 -1.664062 1.367188 -1.265625 1.640625 -0.984375 C 1.921875 -0.710938 2.285156 -0.578125 2.734375 -0.578125 C 3.023438 -0.578125 3.273438 -0.640625 3.484375 -0.765625 C 3.703125 -0.890625 3.859375 -1.078125 3.953125 -1.328125 L 4.671875 -1.125 C 4.554688 -0.757812 4.328125 -0.460938 3.984375 -0.234375 C 3.640625 -0.00390625 3.222656 0.109375 2.734375 0.109375 Z M 1.203125 -2.828125 L 3.984375 -2.828125 C 3.984375 -3.242188 3.863281 -3.585938 3.625 -3.859375 C 3.382812 -4.128906 3.0625 -4.265625 2.65625 -4.265625 C 2.363281 -4.265625 2.113281 -4.195312 1.90625 -4.0625 C 1.695312 -3.925781 1.53125 -3.75 1.40625 -3.53125 C 1.289062 -3.3125 1.222656 -3.078125 1.203125 -2.828125 Z M 1.203125 -2.828125 "/></g></g></g><g clip-path="url(#52dfe79bdd)"><path fill="#0b2134" d="M 894.675781 19.238281 L 872.390625 45.859375 L 894.675781 45.859375 L 894.675781 50.761719 L 862.582031 50.761719 L 894.675781 12.429688 Z M 894.675781 19.238281 " fill-opacity="1" fill-rule="evenodd"/></g><g clip-path="url(#1e7ed9ddce)"><path fill="#407ab1" d="M 894.675781 45.226562 L 873.742188 45.226562 L 903.851562 9.261719 L 903.851562 45.226562 Z M 872.390625 46.492188 L 905.117188 46.492188 L 905.117188 5.789062 L 871.039062 46.492188 Z M 872.390625 46.492188 " fill-opacity="1" fill-rule="nonzero"/></g></svg>